<svg xmlns="http://www.w3.org/2000/svg" width="1024" height="1024" viewBox="0 0 1024 1024">
<!-- SPDX-FileCopyrightText: 2026 the Folio Project
SPDX-License-Identifier: MIT -->
<!-- Background-space zipper: upper-left cue inside the page mask, inset from the color bar and clear of the badge. -->
<g transform="translate(-337 -207) scale(.7 .55)">
  <rect x="824" y="594" width="136" height="384" rx="32" fill="#596779" fill-opacity=".16"/>
  <path d="M868 624 Q892 604 916 624 L925 752 Q925 780 892 780 Q859 780 859 752 Z M877 741 A15 15 0 1 0 907 741 A15 15 0 1 0 877 741 Z" fill="#596779" fill-rule="evenodd"/>
  <path d="M892 797 V951" fill="none" stroke="#596779" stroke-width="6"/>
  <path d="M892 807 H925 M859 835 H892 M892 863 H925 M859 891 H892 M892 919 H925 M859 947 H892" fill="none" stroke="#596779" stroke-width="20" stroke-linecap="round"/>
</g>
</svg>
